<svg xmlns="http://www.w3.org/2000/svg" viewBox="0 0 32 32">
  <defs>
    <linearGradient id="g" x1="0%" y1="0%" x2="100%" y2="100%">
      <stop offset="0%" stop-color="#00d4ff"/>
      <stop offset="100%" stop-color="#7c3aed"/>
    </linearGradient>
  </defs>
  <rect width="32" height="32" rx="8" fill="url(#g)"/>
  <path d="M16 6c-1.5 0-3 1-3 3v2h-2c-1 0-2 1-2 2v2H7c-1 0-2 1-2 2s1 2 2 2h2v2c0 1 1 2 2 2h2v2c0 2 1.5 3 3 3s3-1 3-3v-2h2c1 0 2-1 2-2v-2h2c1 0 2-1 2-2s-1-2-2-2h-2v-2c0-1-1-2-2-2h-2V9c0-2-1.5-3-3-3z" fill="#fff" opacity="0.9"/>
  <circle cx="16" cy="9" r="1.5" fill="#fff"/>
  <circle cx="22" cy="13" r="1.5" fill="#fff"/>
  <circle cx="22" cy="21" r="1.5" fill="#fff"/>
  <circle cx="16" cy="25" r="1.5" fill="#fff"/>
  <circle cx="10" cy="22" r="1.5" fill="#fff"/>
  <circle cx="10" cy="14" r="1.5" fill="#fff"/>
</svg>
